<svg width="44" height="44" viewBox="0 0 44 44" fill="none" xmlns="http://www.w3.org/2000/svg">
<rect x="1" y="1" width="42" height="42" rx="8" fill="url(#int_icon_linear)" stroke="#0CA972" stroke-width="2"/>
<path d="M23.5 9C27.1 9 34.3333 12.4999 37.5 14.4999C36.1804 15.8194 33.6541 17.1887 32 18V24H30V18.8612C27.4252 19.6568 24.6783 19.9999 22 19.9999C16.4 19.9999 9.16667 17.4999 6.5 15.4999C8.94362 13.4635 14 10.5 19.5 9H23.5Z" fill="white"/>
<path d="M10.5 21L11.5 19.9999C11.5 19.9999 20.5 22 22 22C23.5 22 27.5 21 27.5 21V25C27.5 25 26.5 26 26 27C25.5 28 25 32.5 25 32.5C25 32.5 23 33 22 33C18 33 9 29.5 9 29.5L10.5 21Z" fill="white"/>
<path d="M32 25H30C27.5 26 27.5 28.5 27.5 29.5V34C29.5 35 32 35 34 34V29.5C34 27.5 33 26 32 25Z" fill="white"/>
<path d="M35.5 18.8612L33.5 19.5C34.5 21 35.5 24.5 35.5 27L37.5 26.5C37.5 25 36.5 21 35.5 18.8612Z" fill="white"/>
<defs>
<linearGradient id="int_icon_linear" x1="22" y1="0" x2="22" y2="44" gradientUnits="userSpaceOnUse">
<stop stop-color="#20D19A"/>
<stop offset="1" stop-color="#00BE7E"/>
</linearGradient>
</defs>
</svg>
