<svg viewBox="0 0 44 44" fill="none" xmlns="http://www.w3.org/2000/svg">
<rect x="1" y="1" width="42" height="42" rx="8" fill="url(#power_icon_linear)" stroke="#F17702" stroke-width="2"/>
<path d="M27 13C24.6 17.4 18 16.5001 15.5 15.5002C16.5 16.5001 17.6 17.2001 18 18.0001C18.7499 19.5 18 25 17.5 28.5C21.5042 27.5 20 32.5 22 33.0001C20 28.5 21.5 22.5265 30.5 23.0001C37.5 23.3686 37 34 34.5 36.0001H10.5C8.5 36.0001 7.5 34.0001 7.5 32C7.5 29.9999 12.5 15.5 13.5 12.5C14.5 9.5 19 7.00024 23 7.00024C25.5 7.0002 27.5 11.0001 27 13Z" fill="white"/>
<defs>
<linearGradient id="power_icon_linear" x1="22" y1="0" x2="22" y2="44" gradientUnits="userSpaceOnUse">
<stop stop-color="#FEB30F"/>
<stop offset="1" stop-color="#FF9718"/>
</linearGradient>
</defs>
</svg>
